<svg width="332" height="184" viewBox="0 0 332 184" fill="none" xmlns="http://www.w3.org/2000/svg">
<path d="M199.72 13.9176H151.166C145.527 13.9176 140.956 18.4888 140.956 24.1277V72.681C140.956 78.3199 145.527 82.891 151.166 82.891H199.72C205.359 82.891 209.93 78.3199 209.93 72.681V24.1277C209.93 18.4888 205.359 13.9176 199.72 13.9176Z" fill="#CF202D"/>
<path d="M195.181 0.927601C192.502 -0.82125 188.762 0.381717 187.801 0.695094C187.104 0.917492 185.547 1.4937 182.666 3.92996C179.097 6.94243 176.793 9.92458 175.741 11.5824C172.81 16.1921 171.121 20.0234 170.464 21.5196C169.009 24.8858 167.775 27.9084 166.673 30.8097C163.631 26.574 159.9 23.0258 154.917 21.2466C141.007 16.2831 128.674 26.0282 127.875 26.6549C125.965 28.1409 120.961 31.9015 118.555 39.0182C117.908 40.9288 116.472 45.9327 117.827 51.9172C118.383 54.3939 122.265 67.5861 135.993 67.9803C142.816 68.1825 148.831 63.8053 149.67 63.0067C149.438 62.754 149.62 62.9562 149.337 62.6327C147.456 63.6739 142.523 66.1911 135.69 64.9982C131.413 64.2501 128.472 62.107 126.986 60.7625C119.697 54.1311 119.636 45.6598 119.667 44.5781C119.798 39.0586 121.476 35.6317 123.579 32.7708C125.995 29.4955 128.886 27.7467 129.644 27.221C135.871 22.9247 142.705 22.7023 144.889 22.8135C153.502 23.2684 158.738 27.6153 160.962 29.9201C161.771 30.7591 162.478 31.5578 163.125 32.3766C157.778 35.2172 155.564 43.6279 159.021 44.4972C159.112 44.5174 156.11 37.795 164.712 34.5096C164.854 34.7219 164.935 34.8937 165.076 35.1161C162.893 41.2421 161.043 47.2772 158.526 55.3138C156.797 50.7243 149.802 34.1254 146.617 30.0616C144.727 33.0033 142.25 35.844 141.128 37.1986L141.805 37.8354C141.805 37.8354 144.363 34.5904 146.071 37.4007C146.425 37.9871 147.143 39.19 147.982 40.8277C150.742 46.2259 155.402 56.163 157.767 62.4811C158.839 59.4079 160.932 51.9374 163.327 44.3961C164.318 41.2624 165.167 38.7149 165.936 36.501C166.764 37.9163 167.624 39.5337 168.635 41.4848C171.789 47.5805 173.74 52.4631 174.963 56.1225C177.399 50.6637 179.107 46.7212 180.381 43.274C184.364 32.417 185.355 28.0803 185.628 26.574C185.658 26.4325 185.678 26.291 185.709 26.1495C189.874 23.511 196.586 18.1229 198.224 9.97512C198.749 7.38723 198.739 3.21223 195.201 0.907383L195.181 0.927601ZM182.312 32.417C181.291 36.865 179.471 42.9 176.287 49.8954C175.701 48.1971 174.862 45.7103 173.477 42.8798C171.89 39.6247 170.202 36.2382 168.21 33.0943C169.868 32.5585 171.556 32.1138 173.275 31.6083C173.275 31.6083 178.319 30.0313 182.656 27.8983C182.817 27.8174 183.03 27.7062 183.293 27.5748C183.02 29.2529 182.646 30.9613 182.312 32.4271V32.417ZM195.636 12.1789C194.372 18.406 189.045 21.4892 186.325 23.1976C186.295 23.2179 186.265 23.2381 186.234 23.2583C186.639 20.9838 186.821 19.2653 186.558 15.9495C184.031 16.9301 181.443 17.9612 178.915 18.9418C179.097 19.4371 179.047 19.3057 179.249 19.801C180.24 19.245 181.726 19.1743 182.625 19.6494C183.687 20.2054 183.879 22.2474 183.667 24.7342C179.431 26.9076 175.195 27.9792 168.18 30.4458C168.817 28.8182 169.443 27.2716 170.121 25.6137C173.618 17.0918 175.893 13.9581 177.551 11.7947C180.058 8.50932 185.294 2.98983 190.035 3.37397C190.652 3.42451 192.421 3.55593 193.826 4.82966C196.394 7.1345 195.818 11.3297 195.646 12.1991L195.636 12.1789ZM195.929 57.5681C203.541 53.4032 212.72 43.274 214.56 33.6099C214.994 31.3151 214.681 27.7972 212.962 26.7964C208.424 24.158 201.681 33.4582 199.336 38.2094C196.525 43.9008 194.443 49.673 192.744 56.1225C192.573 56.7695 192.421 57.4064 192.269 58.0331L192.229 58.0533C190.116 59.0339 187.923 59.9134 185.739 60.53C181.756 61.6724 178.602 62.1677 174.528 61.1265C171.152 60.2571 168.513 57.6793 168.079 54.0805C167.765 51.4926 168.503 48.834 169.848 46.5999C174.306 39.1597 183.394 35.753 191.471 34.4489L191.44 33.5998C182.1 34.4287 174.023 38.7958 169.777 44.2849C167.816 46.8324 166.633 50.1987 166.603 52.4024C166.603 52.827 166.38 56.4561 168.604 59.0137C170.899 61.6521 173.891 62.6731 177.106 62.8652C182.494 63.1887 187.599 61.0961 191.966 59.317C190.834 64.4119 190.217 68.9205 188.519 73.611C186.831 78.2713 184.728 81.4455 182.878 83.4471C182.878 83.4471 182.858 83.4673 182.848 83.4774C176.975 83.8716 170.161 84.1244 164.5 87.7434C163.196 88.5824 162.155 89.5731 161.649 90.6143C160.78 92.4137 161.558 94.1423 165.107 93.9907C168.968 93.829 174.599 90.7963 178.076 88.5925C179.401 87.7535 180.634 86.8841 181.796 85.944C189.105 85.5093 197.465 84.1143 203.935 75.1274C205.785 72.5597 207.433 69.9718 208.757 67.111L207.948 66.7471C206.634 69.527 204.916 71.9734 203.147 74.4501C197.88 81.8296 192.027 82.6282 185.628 83.255C185.314 83.2853 185.001 83.3156 184.678 83.3359C186.972 81.0209 189.035 78.2814 191.097 74.814C194.261 69.4967 195.039 63.3504 195.909 57.5479L195.929 57.5681ZM205.522 31.2343C206.948 29.5461 210.829 26.1697 212.518 28.0803C213.66 29.3641 213.529 31.5072 213.276 33.3774C211.982 39.6854 207.342 46.2461 202.874 50.785C200.882 52.8068 198.557 54.5455 196.171 56.1225C197.809 47.4996 200.943 36.6426 205.522 31.2343ZM164.359 92.8686C161.366 92.808 162.731 89.6135 166.512 88.2084C171.03 86.5303 174.831 86.3079 179.532 86.0754C173.062 90.5334 168.331 92.9495 164.359 92.8686Z" fill="url(#paint0_linear_62_296)"/>
<path d="M59.9164 116.902H67.8743V118.607H65.5789L53.2144 153.945H52.9005L45.0725 128.212L36.4217 153.945H35.9886L24.252 118.596H22V116.891H32.9029V118.596H28.9726L37.8617 145.661L44.4229 125.968L42.1275 118.596H39.4641V116.891H50.6484V118.596H46.6749L54.7735 145.419L63.5651 118.596H59.9272V116.891L59.9164 116.902ZM101.352 151.393H87.6229C86.1504 151.393 85.2842 151.206 85.0244 150.843C84.7645 150.479 84.6238 149.335 84.6238 147.421V134.835H88.9329C91.5314 134.835 93.0689 135 93.5344 135.319C94.065 135.671 94.3465 136.815 94.4006 138.73V140.677H96.1979V127.123H94.4006V129.917C94.3681 131.523 93.9242 132.525 93.058 132.91C92.4517 133.207 90.9359 133.35 88.5107 133.35H84.6346V118.651H96.0572C98.4066 118.651 99.8791 118.937 100.464 119.499C101.211 120.247 101.666 122.117 101.806 125.12H103.463V116.891H75.7997V118.64H80.0114V151.382H75.7997V153.032H104.621L105.574 143.097H104.112L101.362 151.371L101.352 151.393ZM145.591 121.061C142.365 118.123 138.337 116.66 133.497 116.66C132.447 116.66 130.368 116.704 127.272 116.781C124.175 116.858 121.663 116.902 119.725 116.902H115.005V118.607H119.335V151.393H114.755V153.043H120.938C122.14 153.043 123.709 153.087 125.648 153.164C127.586 153.241 129.047 153.285 130.022 153.285C143.75 153.285 150.626 146.574 150.626 133.152C150.626 128.168 148.947 124.141 145.591 121.05V121.061ZM130.411 151.855C127.921 151.855 125.712 151.657 123.796 151.25V118.365C126.005 118.288 127.715 118.222 128.95 118.2C129.48 118.189 129.989 118.178 130.487 118.178C135.327 118.178 138.976 119.246 141.433 121.391C144.324 123.921 145.764 128.047 145.764 133.757C145.764 145.826 140.643 151.866 130.411 151.866V151.855ZM184.493 151.393H172.42C170.872 151.393 169.93 151.228 169.595 150.887C169.324 150.611 169.183 149.841 169.183 148.576V118.607H173.644V116.902H160.662V118.607H164.733V151.393H160.251V153.043H187.914L189.04 142.822H187.676L184.493 151.393ZM221.954 118.596H226.263V137.684C226.263 141.469 225.852 144.34 225.018 146.299C223.438 149.995 220.352 151.844 215.772 151.844C211.777 151.844 209.059 150.204 207.608 146.926C206.656 144.748 206.168 141.381 206.168 136.826V118.596H211.008V116.891H197.767V118.596H201.556V137.684C201.556 142.437 202.379 146.101 204.025 148.664C206.309 152.218 210.229 154 215.783 154C221.337 154 225.094 151.822 227.043 147.454C228.115 145.034 228.645 141.502 228.645 136.837V118.607H232.673V116.902H221.965V118.607L221.954 118.596ZM256.872 133.207L250.884 129.818C247.766 128.047 246.218 126.023 246.218 123.734C246.218 122.095 246.846 120.687 248.112 119.499C249.455 118.266 251.144 117.65 253.19 117.65C255.951 117.65 258.171 118.673 259.849 120.72C260.964 122.062 261.711 123.613 262.079 125.373H263.444V116.517H262.025C261.83 117.342 261.549 117.76 261.192 117.76C260.748 117.76 259.827 117.463 258.442 116.88C257.056 116.297 255.269 116 253.104 116C250.083 116 247.604 116.814 245.655 118.453C243.63 120.159 242.612 122.392 242.612 125.175C242.612 128.861 244.734 131.898 248.989 134.307L254.284 137.299C256.731 138.675 258.279 139.665 258.95 140.27C260.358 141.557 261.062 143.13 261.062 145.012C261.062 147.091 260.412 148.807 259.102 150.171C257.716 151.613 255.875 152.339 253.591 152.339C250.505 152.339 248.134 151.239 246.478 149.049C245.601 147.894 244.821 146.123 244.128 143.713H242.861V153.472H244.366C244.54 152.592 244.864 152.163 245.352 152.185C246.369 152.493 247.387 152.79 248.394 153.087C250.451 153.692 252.335 153.989 254.046 153.989C257.337 153.989 260.011 152.911 262.069 150.754C263.996 148.73 264.97 146.233 264.97 143.284C264.97 140.798 264.115 138.697 262.404 136.98C261.419 135.99 259.578 134.736 256.893 133.207H256.872ZM310 118.596V116.891H297.159V118.596H301.642V133.394H283.744V118.596H288.01V116.891H274.953V118.596H279.121V151.338H274.953V153.043H288.01V151.338H283.744V135.055H301.642V151.338H297.159V153.043H310V151.338H306.189V118.596H310Z" fill="url(#paint1_linear_62_296)"/>
<path d="M42.7139 170.17V173.825H46.8027V174.997H42.7139V178.761H47.2929V179.932H41.2545V168.987H47.2929V170.159H42.7139V170.17Z" fill="white"/>
<path d="M56.863 179.943L54.7685 176.743L52.752 179.943H51.2257L54.0778 175.68L51.2257 171.352H52.8857L54.9802 174.541L56.9745 171.352H58.5008L55.6598 175.604L58.5119 179.954H56.8519L56.863 179.943Z" fill="white"/>
<path d="M65.475 171.699C66.0543 171.374 66.7228 171.2 67.4803 171.2C68.2379 171.2 68.9732 171.384 69.6194 171.753C70.2545 172.122 70.7558 172.632 71.1234 173.294C71.4911 173.955 71.6694 174.725 71.6694 175.604C71.6694 176.483 71.4911 177.242 71.1234 177.925C70.7558 178.609 70.2545 179.129 69.6194 179.509C68.9844 179.889 68.2714 180.073 67.4803 180.073C66.6893 180.073 66.0654 179.911 65.4861 179.574C64.9068 179.249 64.4723 178.837 64.1715 178.338V184H62.7009V171.319H64.1715V172.903C64.4611 172.415 64.8956 172.003 65.4638 171.666L65.475 171.699ZM69.7642 173.923C69.4969 173.445 69.1292 173.077 68.6724 172.827C68.2157 172.578 67.7143 172.447 67.1684 172.447C66.6225 172.447 66.1323 172.578 65.6755 172.827C65.2187 173.087 64.8511 173.456 64.5837 173.944C64.3052 174.433 64.1715 174.997 64.1715 175.626C64.1715 176.255 64.3052 176.841 64.5837 177.329C64.8622 177.817 65.2187 178.186 65.6755 178.446C66.1323 178.706 66.6336 178.826 67.1684 178.826C67.7032 178.826 68.2157 178.696 68.6724 178.446C69.1292 178.186 69.4969 177.817 69.7642 177.329C70.0316 176.841 70.1653 176.266 70.1653 175.615C70.1653 174.964 70.0316 174.4 69.7642 173.923Z" fill="white"/>
<path d="M84.3477 176.179H77.2955C77.3512 177.025 77.652 177.687 78.1868 178.164C78.7327 178.641 79.39 178.88 80.1587 178.88C80.7938 178.88 81.3174 178.739 81.7408 178.446C82.1641 178.153 82.4649 177.774 82.632 177.296H84.2141C83.9801 178.121 83.501 178.793 82.7991 179.314C82.0861 179.835 81.206 180.095 80.1587 180.095C79.3232 180.095 78.5767 179.911 77.9083 179.542C77.2509 179.173 76.7273 178.652 76.3485 177.98C75.9697 177.307 75.7803 176.526 75.7803 175.637C75.7803 174.747 75.9586 173.966 76.3262 173.294C76.6939 172.621 77.2064 172.111 77.8637 171.753C78.521 171.395 79.2897 171.211 80.1476 171.211C81.0055 171.211 81.7296 171.384 82.3758 171.742C83.022 172.1 83.5122 172.588 83.8687 173.207C84.2141 173.825 84.3923 174.53 84.3923 175.311C84.3923 175.582 84.3812 175.875 84.3477 176.179ZM82.5095 173.608C82.2644 173.218 81.9302 172.914 81.5068 172.719C81.0834 172.513 80.6155 172.415 80.0919 172.415C79.3454 172.415 78.7216 172.643 78.1979 173.109C77.6743 173.565 77.3735 174.205 77.3066 175.018H82.8771C82.8771 174.476 82.7546 174.01 82.5095 173.619V173.608Z" fill="white"/>
<path d="M91.6451 171.601C92.1242 171.33 92.7035 171.189 93.3942 171.189V172.664H93.0043C91.3666 172.664 90.5421 173.532 90.5421 175.268V179.943H89.0715V171.341H90.5421V172.74C90.7984 172.252 91.166 171.862 91.6451 171.59V171.601Z" fill="white"/>
<path d="M97.8729 169.671C97.6835 169.486 97.5833 169.247 97.5833 168.976C97.5833 168.705 97.6835 168.477 97.8729 168.282C98.0623 168.098 98.3074 168 98.5859 168C98.8645 168 99.0873 168.098 99.2655 168.282C99.4549 168.466 99.5441 168.705 99.5441 168.976C99.5441 169.247 99.4549 169.475 99.2655 169.671C99.0761 169.866 98.8533 169.953 98.5859 169.953C98.3186 169.953 98.0735 169.855 97.8729 169.671ZM99.2878 171.341V179.943H97.8172V171.341H99.2878Z" fill="white"/>
<path d="M112.534 176.179H105.482C105.538 177.025 105.839 177.687 106.373 178.164C106.919 178.641 107.577 178.88 108.345 178.88C108.98 178.88 109.504 178.739 109.927 178.446C110.351 178.153 110.652 177.774 110.819 177.296H112.401C112.167 178.121 111.688 178.793 110.986 179.314C110.273 179.835 109.393 180.095 108.345 180.095C107.51 180.095 106.763 179.911 106.095 179.542C105.438 179.173 104.914 178.652 104.535 177.98C104.156 177.307 103.967 176.526 103.967 175.637C103.967 174.747 104.145 173.966 104.513 173.294C104.881 172.621 105.393 172.111 106.05 171.753C106.708 171.395 107.476 171.211 108.334 171.211C109.192 171.211 109.916 171.384 110.562 171.742C111.209 172.1 111.699 172.588 112.055 173.207C112.401 173.825 112.579 174.53 112.579 175.311C112.579 175.582 112.568 175.875 112.534 176.179ZM110.696 173.608C110.451 173.218 110.117 172.914 109.694 172.719C109.27 172.513 108.802 172.415 108.279 172.415C107.543 172.415 106.908 172.643 106.385 173.109C105.861 173.565 105.56 174.205 105.493 175.018H111.064C111.064 174.476 110.941 174.01 110.696 173.619V173.608Z" fill="white"/>
<path d="M124.166 172.133C124.834 172.762 125.168 173.673 125.168 174.866V179.932H123.72V175.073C123.72 174.216 123.497 173.554 123.063 173.109C122.617 172.654 122.015 172.426 121.258 172.426C120.5 172.426 119.865 172.664 119.408 173.131C118.952 173.597 118.729 174.292 118.729 175.181V179.932H117.258V171.33H118.729V172.556C119.018 172.122 119.408 171.775 119.91 171.536C120.411 171.298 120.957 171.178 121.559 171.178C122.628 171.178 123.508 171.493 124.166 172.133Z" fill="white"/>
<path d="M130.304 173.304C130.672 172.643 131.173 172.122 131.831 171.764C132.477 171.395 133.223 171.211 134.059 171.211C135.139 171.211 136.042 171.471 136.744 171.981C137.446 172.491 137.914 173.207 138.136 174.118H136.554C136.398 173.597 136.109 173.185 135.674 172.881C135.24 172.578 134.705 172.426 134.059 172.426C133.223 172.426 132.544 172.708 132.031 173.261C131.519 173.814 131.262 174.617 131.262 175.637C131.262 176.656 131.519 177.47 132.031 178.034C132.544 178.598 133.223 178.88 134.059 178.88C134.705 178.88 135.24 178.739 135.674 178.446C136.109 178.153 136.398 177.73 136.566 177.188H138.148C137.914 178.066 137.435 178.772 136.733 179.303C136.02 179.835 135.139 180.095 134.07 180.095C133.234 180.095 132.488 179.911 131.842 179.542C131.196 179.173 130.683 178.663 130.315 177.991C129.948 177.318 129.77 176.537 129.77 175.637C129.77 174.736 129.948 173.966 130.315 173.304H130.304Z" fill="white"/>
<path d="M150.826 176.179H143.774C143.829 177.025 144.13 177.687 144.665 178.164C145.211 178.641 145.868 178.88 146.637 178.88C147.272 178.88 147.796 178.739 148.219 178.446C148.642 178.153 148.943 177.774 149.11 177.296H150.692C150.458 178.121 149.979 178.793 149.277 179.314C148.564 179.835 147.684 180.095 146.637 180.095C145.801 180.095 145.055 179.911 144.386 179.542C143.729 179.173 143.206 178.652 142.827 177.98C142.448 177.307 142.259 176.526 142.259 175.637C142.259 174.747 142.437 173.966 142.804 173.294C143.172 172.621 143.685 172.111 144.342 171.753C144.999 171.395 145.768 171.211 146.626 171.211C147.484 171.211 148.208 171.384 148.854 171.742C149.5 172.1 149.99 172.588 150.347 173.207C150.692 173.825 150.871 174.53 150.871 175.311C150.871 175.582 150.859 175.875 150.826 176.179ZM148.988 173.608C148.743 173.218 148.408 172.914 147.985 172.719C147.562 172.513 147.094 172.415 146.57 172.415C145.835 172.415 145.2 172.643 144.676 173.109C144.153 173.565 143.852 174.205 143.785 175.018H149.355C149.355 174.476 149.233 174.01 148.988 173.619V173.608Z" fill="white"/>
<path d="M171.214 179.943L169.743 178.5C169.197 179.054 168.607 179.466 167.983 179.737C167.359 180.008 166.657 180.138 165.877 180.138C165.098 180.138 164.418 179.997 163.828 179.726C163.226 179.455 162.769 179.064 162.446 178.565C162.123 178.066 161.956 177.481 161.956 176.808C161.956 176.049 162.179 175.376 162.624 174.79C163.07 174.205 163.727 173.749 164.596 173.413C164.251 173.011 164.006 172.654 163.85 172.317C163.694 171.981 163.627 171.612 163.627 171.222C163.627 170.766 163.75 170.343 163.995 169.974C164.24 169.605 164.585 169.313 165.031 169.106C165.476 168.9 166 168.792 166.59 168.792C167.181 168.792 167.671 168.9 168.106 169.117C168.54 169.334 168.852 169.638 169.075 170.039C169.287 170.43 169.387 170.864 169.365 171.352H167.894C167.894 170.918 167.783 170.582 167.526 170.343C167.27 170.094 166.936 169.974 166.524 169.974C166.089 169.974 165.744 170.094 165.487 170.332C165.231 170.571 165.098 170.864 165.098 171.233C165.098 171.547 165.187 171.851 165.365 172.144C165.543 172.437 165.844 172.795 166.256 173.228L169.61 176.504L169.899 176.07L170.991 174.281H172.573L171.247 176.504C171.069 176.819 170.846 177.144 170.601 177.491L173.13 179.954H171.214V179.943ZM167.448 178.576C167.916 178.359 168.362 178.012 168.774 177.557L165.476 174.324C164.106 174.834 163.415 175.647 163.415 176.754C163.415 177.372 163.638 177.882 164.095 178.294C164.552 178.706 165.142 178.902 165.877 178.902C166.457 178.902 166.98 178.793 167.448 178.576Z" fill="white"/>
<path d="M185.742 170.17V173.825H189.831V174.997H185.742V178.761H190.321V179.932H184.282V168.987H190.321V170.159H185.742V170.17Z" fill="white"/>
<path d="M199.891 179.943L197.796 176.743L195.78 179.943H194.254L197.106 175.68L194.254 171.352H195.914L198.008 174.541L200.002 171.352H201.529L198.688 175.604L201.54 179.954H199.88L199.891 179.943Z" fill="white"/>
<path d="M205.74 173.304C206.108 172.643 206.609 172.122 207.266 171.764C207.912 171.395 208.659 171.211 209.494 171.211C210.575 171.211 211.478 171.471 212.179 171.981C212.881 172.491 213.349 173.207 213.572 174.118H211.99C211.834 173.597 211.544 173.185 211.11 172.881C210.675 172.578 210.141 172.426 209.494 172.426C208.659 172.426 207.979 172.708 207.467 173.261C206.954 173.814 206.698 174.617 206.698 175.637C206.698 176.656 206.954 177.47 207.467 178.034C207.979 178.598 208.659 178.88 209.494 178.88C210.141 178.88 210.675 178.739 211.11 178.446C211.544 178.153 211.834 177.73 212.001 177.188H213.583C213.349 178.066 212.87 178.772 212.168 179.303C211.455 179.835 210.575 180.095 209.506 180.095C208.67 180.095 207.924 179.911 207.277 179.542C206.631 179.173 206.119 178.663 205.751 177.991C205.383 177.318 205.205 176.537 205.205 175.637C205.205 174.736 205.383 173.966 205.751 173.304H205.74Z" fill="white"/>
<path d="M226.262 176.179H219.209C219.265 177.025 219.566 177.687 220.101 178.164C220.647 178.641 221.304 178.88 222.073 178.88C222.708 178.88 223.231 178.739 223.655 178.446C224.078 178.153 224.379 177.774 224.546 177.296H226.128C225.894 178.121 225.415 178.793 224.713 179.314C224 179.835 223.12 180.095 222.073 180.095C221.237 180.095 220.491 179.911 219.822 179.542C219.165 179.173 218.641 178.652 218.262 177.98C217.884 177.307 217.694 176.526 217.694 175.637C217.694 174.747 217.872 173.966 218.24 173.294C218.608 172.621 219.12 172.111 219.778 171.753C220.435 171.395 221.204 171.211 222.061 171.211C222.919 171.211 223.644 171.384 224.29 171.742C224.936 172.1 225.426 172.588 225.783 173.207C226.128 173.825 226.306 174.53 226.306 175.311C226.306 175.582 226.295 175.875 226.262 176.179ZM224.435 173.608C224.189 173.218 223.855 172.914 223.432 172.719C223.008 172.513 222.541 172.415 222.017 172.415C221.282 172.415 220.647 172.643 220.123 173.109C219.599 173.565 219.299 174.205 219.232 175.018H224.802C224.802 174.476 224.68 174.01 224.435 173.619V173.608Z" fill="white"/>
<path d="M232.456 168.336V179.943H230.985V168.336H232.456Z" fill="white"/>
<path d="M239.163 168.336V179.943H237.692V168.336H239.163Z" fill="white"/>
<path d="M252.398 176.179H245.346C245.402 177.025 245.703 177.687 246.237 178.164C246.783 178.641 247.441 178.88 248.209 178.88C248.844 178.88 249.368 178.739 249.791 178.446C250.215 178.153 250.516 177.774 250.683 177.296H252.265C252.031 178.121 251.552 178.793 250.85 179.314C250.137 179.835 249.257 180.095 248.209 180.095C247.374 180.095 246.627 179.911 245.959 179.542C245.302 179.173 244.778 178.652 244.399 177.98C244.02 177.307 243.831 176.526 243.831 175.637C243.831 174.747 244.009 173.966 244.377 173.294C244.744 172.621 245.257 172.111 245.914 171.753C246.572 171.395 247.34 171.211 248.198 171.211C249.056 171.211 249.78 171.384 250.426 171.742C251.073 172.1 251.563 172.588 251.919 173.207C252.265 173.825 252.443 174.53 252.443 175.311C252.443 175.582 252.432 175.875 252.398 176.179ZM250.56 173.608C250.315 173.218 249.981 172.914 249.557 172.719C249.134 172.513 248.666 172.415 248.142 172.415C247.407 172.415 246.772 172.643 246.249 173.109C245.725 173.565 245.424 174.205 245.357 175.018H250.928C250.928 174.476 250.805 174.01 250.56 173.619V173.608Z" fill="white"/>
<path d="M264.029 172.133C264.698 172.762 265.032 173.673 265.032 174.866V179.932H263.584V175.073C263.584 174.216 263.361 173.554 262.927 173.109C262.481 172.654 261.879 172.426 261.122 172.426C260.364 172.426 259.729 172.664 259.272 173.131C258.816 173.597 258.593 174.292 258.593 175.181V179.932H257.122V171.33H258.593V172.556C258.882 172.122 259.272 171.775 259.774 171.536C260.275 171.298 260.821 171.178 261.422 171.178C262.492 171.178 263.372 171.493 264.029 172.133Z" fill="white"/>
<path d="M270.179 173.304C270.547 172.643 271.048 172.122 271.706 171.764C272.352 171.395 273.098 171.211 273.934 171.211C275.014 171.211 275.917 171.471 276.619 171.981C277.321 172.491 277.789 173.207 278.011 174.118H276.429C276.273 173.597 275.984 173.185 275.549 172.881C275.115 172.578 274.58 172.426 273.934 172.426C273.098 172.426 272.419 172.708 271.906 173.261C271.394 173.814 271.137 174.617 271.137 175.637C271.137 176.656 271.394 177.47 271.906 178.034C272.419 178.598 273.098 178.88 273.934 178.88C274.58 178.88 275.115 178.739 275.549 178.446C275.984 178.153 276.273 177.73 276.441 177.188H278.023C277.789 178.066 277.31 178.772 276.608 179.303C275.895 179.835 275.014 180.095 273.945 180.095C273.109 180.095 272.363 179.911 271.717 179.542C271.071 179.173 270.558 178.663 270.19 177.991C269.823 177.318 269.645 176.537 269.645 175.637C269.645 174.736 269.823 173.966 270.19 173.304H270.179Z" fill="white"/>
<path d="M290.701 176.179H283.649C283.704 177.025 284.005 177.687 284.54 178.164C285.086 178.641 285.743 178.88 286.512 178.88C287.147 178.88 287.671 178.739 288.094 178.446C288.517 178.153 288.818 177.774 288.985 177.296H290.567C290.333 178.121 289.854 178.793 289.152 179.314C288.439 179.835 287.559 180.095 286.512 180.095C285.676 180.095 284.93 179.911 284.261 179.542C283.604 179.173 283.081 178.652 282.702 177.98C282.323 177.307 282.134 176.526 282.134 175.637C282.134 174.747 282.312 173.966 282.679 173.294C283.047 172.621 283.56 172.111 284.217 171.753C284.874 171.395 285.643 171.211 286.501 171.211C287.359 171.211 288.083 171.384 288.729 171.742C289.375 172.1 289.865 172.588 290.222 173.207C290.567 173.825 290.746 174.53 290.746 175.311C290.746 175.582 290.734 175.875 290.701 176.179ZM288.863 173.608C288.618 173.218 288.283 172.914 287.86 172.719C287.437 172.513 286.969 172.415 286.445 172.415C285.71 172.415 285.075 172.643 284.551 173.109C284.028 173.565 283.727 174.205 283.66 175.018H289.23C289.23 174.476 289.108 174.01 288.863 173.619V173.608Z" fill="white"/>
<defs>
<linearGradient id="paint0_linear_62_296" x1="131.545" y1="80.4245" x2="208.049" y2="15.8181" gradientUnits="userSpaceOnUse">
<stop stop-color="#DC972D"/>
<stop offset="0.54" stop-color="#EED78C"/>
<stop offset="1" stop-color="#DC962E"/>
</linearGradient>
<linearGradient id="paint1_linear_62_296" x1="22" y1="134.989" x2="310" y2="134.989" gradientUnits="userSpaceOnUse">
<stop stop-color="#E1A849"/>
<stop offset="0.48" stop-color="#F3E29B"/>
<stop offset="1" stop-color="#DFA03A"/>
</linearGradient>
</defs>
</svg>
