<svg width="382" height="116" viewBox="0 0 382 116" fill="none" xmlns="http://www.w3.org/2000/svg">
<g clip-path="url(#clip0_563_254)">
<path d="M101.45 17.13H41.72C34.7833 17.13 29.16 22.7533 29.16 29.69V89.42C29.16 96.3567 34.7833 101.98 41.72 101.98H101.45C108.387 101.98 114.01 96.3567 114.01 89.42V29.69C114.01 22.7533 108.387 17.13 101.45 17.13Z" fill="#CF202D"/>
<path d="M95.86 1.13999C92.57 -1.01001 87.97 0.469988 86.78 0.849988C85.92 1.11999 84 1.82999 80.46 4.82999C76.08 8.52999 73.23 12.21 71.94 14.24C68.34 19.92 66.25 24.62 65.45 26.47C63.66 30.61 62.15 34.33 60.78 37.9C57.04 32.69 52.45 28.33 46.31 26.14C29.19 20.04 14.02 32.03 13.04 32.79C10.69 34.62 4.54 39.25 1.57 48C0.770002 50.36 -0.989998 56.51 0.670002 63.87C1.36 66.92 6.12 83.14 23.02 83.63C31.42 83.87 38.81 78.49 39.84 77.51C39.56 77.2 39.77 77.44 39.43 77.05C37.12 78.33 31.05 81.43 22.64 79.96C17.38 79.04 13.76 76.4 11.94 74.75C3 66.59 2.93 56.16 2.96 54.84C3.13 48.05 5.18 43.84 7.78 40.32C10.75 36.29 14.31 34.14 15.25 33.49C22.91 28.21 31.31 27.93 34.01 28.07C44.6 28.63 51.05 33.98 53.79 36.81C54.78 37.84 55.65 38.83 56.45 39.84C49.87 43.33 47.15 53.68 51.4 54.75C51.51 54.78 47.82 46.5 58.4 42.46C58.58 42.73 58.67 42.94 58.84 43.21C56.15 50.75 53.88 58.16 50.78 68.06C48.65 62.41 40.05 42 36.13 37C33.81 40.62 30.76 44.11 29.37 45.78L30.2 46.56C30.2 46.56 33.35 42.57 35.45 46.03C35.89 46.75 36.77 48.23 37.8 50.24C41.2 56.89 46.93 69.1 49.83 76.88C51.15 73.1 53.72 63.9 56.66 54.64C57.88 50.78 58.92 47.64 59.87 44.93C60.89 46.67 61.94 48.66 63.19 51.06C67.07 58.56 69.48 64.56 70.97 69.07C73.97 62.35 76.07 57.51 77.63 53.26C82.53 39.9 83.75 34.57 84.08 32.72C84.11 32.54 84.14 32.37 84.18 32.19C89.3 28.95 97.56 22.31 99.58 12.29C100.22 9.10999 100.22 3.96999 95.86 1.13999ZM80.03 39.88C78.78 45.36 76.54 52.78 72.62 61.38C71.9 59.29 70.86 56.24 69.16 52.75C67.21 48.75 65.13 44.58 62.67 40.71C64.71 40.05 66.78 39.5 68.9 38.88C68.9 38.88 75.11 36.94 80.44 34.31C80.64 34.21 80.9 34.08 81.22 33.91C80.88 35.98 80.43 38.08 80.02 39.88H80.03ZM96.42 14.98C94.86 22.64 88.32 26.43 84.97 28.54C84.93 28.56 84.89 28.59 84.85 28.61C85.35 25.81 85.57 23.69 85.24 19.62C82.13 20.82 78.95 22.09 75.83 23.3C76.06 23.91 76 23.75 76.25 24.35C77.47 23.67 79.3 23.58 80.4 24.16C81.71 24.85 81.94 27.36 81.68 30.41C76.47 33.09 71.26 34.41 62.62 37.43C63.4 35.42 64.17 33.52 65.01 31.48C69.31 21 72.11 17.14 74.15 14.48C77.24 10.44 83.68 3.64999 89.51 4.11999C90.27 4.17999 92.44 4.34999 94.18 5.90999C97.34 8.74999 96.63 13.91 96.42 14.97V14.98ZM96.79 70.83C106.15 65.71 117.45 53.25 119.71 41.36C120.25 38.53 119.86 34.21 117.74 32.98C112.16 29.73 103.86 41.18 100.98 47.02C97.53 54.02 94.96 61.13 92.88 69.06C92.67 69.86 92.48 70.64 92.3 71.41L92.24 71.44C89.64 72.64 86.94 73.72 84.26 74.49C79.36 75.89 75.48 76.5 70.47 75.22C66.31 74.16 63.07 70.98 62.54 66.55C62.16 63.37 63.06 60.09 64.71 57.34C70.19 48.18 81.37 44 91.31 42.39L91.28 41.35C79.79 42.37 69.85 47.74 64.63 54.5C62.21 57.63 60.76 61.77 60.72 64.49C60.72 65.01 60.44 69.48 63.18 72.63C66 75.87 69.68 77.13 73.64 77.37C80.26 77.76 86.55 75.19 91.93 73C90.54 79.27 89.77 84.82 87.68 90.59C85.6 96.33 83.02 100.22 80.74 102.69C80.73 102.7 80.72 102.71 80.71 102.73C73.48 103.22 65.1 103.53 58.14 107.98C56.53 109.01 55.25 110.23 54.63 111.51C53.56 113.72 54.52 115.85 58.89 115.66C63.64 115.46 70.57 111.73 74.85 109.02C76.48 107.99 77.99 106.91 79.43 105.76C88.42 105.22 98.71 103.5 106.66 92.46C108.93 89.31 110.96 86.12 112.6 82.6L111.61 82.16C109.99 85.58 107.88 88.59 105.7 91.63C99.22 100.7 92.02 101.69 84.14 102.46C83.76 102.5 83.37 102.53 82.97 102.56C85.79 99.71 88.34 96.34 90.87 92.08C94.76 85.54 95.72 77.98 96.79 70.84V70.83ZM108.58 38.43C110.33 36.36 115.11 32.2 117.19 34.55C118.59 36.13 118.43 38.77 118.12 41.06C116.53 48.82 110.82 56.89 105.32 62.48C102.87 64.97 100.01 67.11 97.07 69.05C99.09 58.45 102.94 45.09 108.57 38.43H108.58ZM57.94 114.25C54.26 114.18 55.93 110.24 60.59 108.51C66.15 106.45 70.82 106.18 76.6 105.89C68.65 111.37 62.82 114.34 57.94 114.25Z" fill="url(#paint0_linear_563_254)"/>
<path d="M173.15 30.99H180.11V32.46H178.1L167.29 62.88H167.02L160.17 40.73L152.61 62.88H152.23L141.96 32.46H139.99V30.99H149.52V32.46H146.08L153.85 55.76L159.59 38.81L157.58 32.46H155.25V30.99H165.03V32.46H161.55L168.63 55.55L176.32 32.46H173.14V30.99H173.15ZM207.74 60.68H195.73C194.44 60.68 193.69 60.52 193.46 60.21C193.23 59.9 193.11 58.91 193.11 57.27V46.44H196.88C199.16 46.44 200.5 46.58 200.9 46.86C201.36 47.17 201.61 48.15 201.65 49.79V51.47H203.22V39.8H201.65V42.21C201.62 43.59 201.23 44.45 200.48 44.79C199.95 45.04 198.62 45.17 196.5 45.17H193.11V32.51H203.1C205.15 32.51 206.44 32.75 206.96 33.24C207.62 33.88 208.01 35.5 208.13 38.08H209.58V31H185.38V32.51H189.07V60.69H185.38V62.11H210.59L211.43 53.56H210.15L207.74 60.68ZM249.19 44.99C249.19 56.54 243.18 62.32 231.17 62.32C230.32 62.32 229.04 62.28 227.35 62.22C225.65 62.15 224.28 62.12 223.23 62.12H217.82V60.7H221.82V32.48H218.03V31.01H222.16C223.85 31.01 226.05 30.98 228.76 30.91C231.47 30.84 233.29 30.81 234.21 30.81C238.44 30.81 241.97 32.07 244.79 34.6C247.72 37.25 249.19 40.73 249.19 45.01V44.99ZM244.94 45.49C244.94 40.57 243.68 37.03 241.15 34.85C239 33.01 235.81 32.08 231.58 32.08C231.15 32.08 230.7 32.08 230.24 32.1C229.16 32.13 227.66 32.18 225.74 32.25V60.56C227.42 60.91 229.34 61.08 231.52 61.08C240.47 61.08 244.95 55.88 244.95 45.49H244.94ZM277.16 60.68H266.6C265.24 60.68 264.42 60.53 264.13 60.24C263.89 60 263.77 59.34 263.77 58.25V32.46H267.67V30.99H256.31V32.46H259.87V60.68H255.95V62.1H280.15L281.13 53.3H279.94L277.15 60.68H277.16ZM308.28 32.46H312.05V48.89C312.05 52.14 311.69 54.62 310.96 56.31C309.58 59.49 306.88 61.09 302.87 61.09C299.38 61.09 297 59.68 295.73 56.86C294.89 54.99 294.47 52.09 294.47 48.16V32.47H298.7V31H287.11V32.47H290.42V48.9C290.42 52.99 291.14 56.14 292.58 58.35C294.58 61.41 298.01 62.94 302.87 62.94C307.73 62.94 311.01 61.06 312.72 57.3C313.66 55.22 314.12 52.17 314.12 48.16V32.47H317.64V31H308.27V32.47L308.28 32.46ZM337.18 45.03L331.94 42.12C329.22 40.6 327.85 38.85 327.85 36.88C327.85 35.47 328.4 34.25 329.51 33.23C330.68 32.17 332.16 31.64 333.95 31.64C336.37 31.64 338.31 32.52 339.77 34.28C340.75 35.44 341.4 36.77 341.72 38.28H342.91V30.65H341.67C341.5 31.36 341.26 31.72 340.94 31.72C340.55 31.72 339.75 31.47 338.53 30.97C337.31 30.47 335.76 30.22 333.86 30.22C331.22 30.22 329.05 30.93 327.34 32.34C325.57 33.81 324.68 35.73 324.68 38.12C324.68 41.29 326.54 43.91 330.25 45.98L334.88 48.56C337.02 49.75 338.38 50.6 338.97 51.12C340.2 52.22 340.81 53.59 340.81 55.21C340.81 57 340.24 58.48 339.09 59.65C337.87 60.89 336.27 61.51 334.27 61.51C331.57 61.51 329.5 60.57 328.05 58.68C327.28 57.69 326.6 56.16 326 54.09H324.89V62.49H326.21C326.36 61.74 326.65 61.37 327.07 61.38C327.96 61.65 328.85 61.9 329.73 62.16C331.53 62.68 333.18 62.94 334.67 62.94C337.55 62.94 339.89 62.01 341.69 60.15C343.38 58.4 344.23 56.26 344.23 53.72C344.23 51.58 343.48 49.77 341.99 48.29C341.12 47.44 339.52 46.36 337.17 45.04L337.18 45.03ZM382 32.46V30.99H370.77V32.46H374.69V45.2H359.04V32.46H362.77V30.99H351.35V32.46H355V60.64H351.35V62.11H362.77V60.64H359.04V46.62H374.69V60.64H370.77V62.11H382V60.64H378.67V32.46H382Z" fill="url(#paint1_linear_563_254)"/>
<path d="M157.95 75.87L154.93 86.3H153.4L150.98 77.91L148.47 86.3H146.96L144.04 75.87H145.49L147.76 84.71L150.27 75.87H151.8L154.19 84.68L156.48 75.87H157.95Z" fill="black"/>
<path d="M167.48 82.71H160.93C160.98 83.52 161.26 84.15 161.76 84.6C162.26 85.05 162.87 85.28 163.59 85.28C164.18 85.28 164.67 85.14 165.06 84.87C165.45 84.6 165.73 84.23 165.89 83.77H167.36C167.14 84.56 166.7 85.2 166.04 85.69C165.38 86.18 164.56 86.43 163.59 86.43C162.81 86.43 162.12 86.26 161.5 85.91C160.89 85.56 160.41 85.06 160.06 84.42C159.71 83.78 159.54 83.03 159.54 82.18C159.54 81.33 159.71 80.59 160.05 79.95C160.39 79.31 160.87 78.82 161.48 78.48C162.09 78.14 162.8 77.96 163.6 77.96C164.4 77.96 165.07 78.13 165.66 78.47C166.26 78.81 166.72 79.28 167.04 79.87C167.36 80.46 167.53 81.13 167.53 81.88C167.53 82.14 167.52 82.41 167.49 82.7L167.48 82.71ZM165.78 80.26C165.55 79.89 165.24 79.6 164.85 79.41C164.46 79.22 164.02 79.12 163.54 79.12C162.85 79.12 162.27 79.34 161.78 79.78C161.3 80.22 161.02 80.83 160.95 81.61H166.13C166.13 81.09 166.01 80.64 165.79 80.27L165.78 80.26Z" fill="black"/>
<path d="M169.92 79.96C170.26 79.33 170.73 78.83 171.32 78.49C171.91 78.14 172.58 77.97 173.32 77.97C173.96 77.97 174.55 78.12 175.1 78.41C175.65 78.7 176.07 79.09 176.36 79.57V75.23H177.74V86.3H176.36V84.76C176.09 85.25 175.69 85.65 175.16 85.96C174.63 86.27 174.01 86.43 173.3 86.43C172.59 86.43 171.91 86.25 171.32 85.89C170.73 85.53 170.26 85.03 169.92 84.38C169.58 83.73 169.41 82.99 169.41 82.17C169.41 81.35 169.58 80.6 169.92 79.96ZM175.98 80.57C175.73 80.11 175.39 79.76 174.97 79.52C174.55 79.28 174.08 79.15 173.57 79.15C173.06 79.15 172.6 79.27 172.18 79.51C171.76 79.75 171.43 80.1 171.18 80.56C170.93 81.02 170.81 81.56 170.81 82.18C170.81 82.8 170.93 83.35 171.18 83.82C171.43 84.28 171.76 84.64 172.18 84.88C172.6 85.12 173.06 85.25 173.57 85.25C174.08 85.25 174.54 85.13 174.97 84.88C175.4 84.63 175.73 84.28 175.98 83.82C176.23 83.36 176.35 82.81 176.35 82.2C176.35 81.59 176.23 81.04 175.98 80.58V80.57Z" fill="black"/>
<path d="M180.64 79.96C180.98 79.33 181.45 78.83 182.04 78.49C182.63 78.14 183.3 77.97 184.04 77.97C184.68 77.97 185.27 78.12 185.82 78.41C186.37 78.7 186.79 79.09 187.08 79.57V75.23H188.46V86.3H187.08V84.76C186.81 85.25 186.41 85.65 185.88 85.96C185.35 86.27 184.73 86.43 184.02 86.43C183.31 86.43 182.63 86.25 182.04 85.89C181.45 85.53 180.98 85.03 180.64 84.38C180.3 83.73 180.13 82.99 180.13 82.17C180.13 81.35 180.3 80.6 180.64 79.96ZM186.7 80.57C186.45 80.11 186.11 79.76 185.69 79.52C185.27 79.28 184.8 79.15 184.29 79.15C183.78 79.15 183.32 79.27 182.9 79.51C182.48 79.75 182.15 80.1 181.9 80.56C181.65 81.02 181.53 81.56 181.53 82.18C181.53 82.8 181.65 83.35 181.9 83.82C182.15 84.28 182.48 84.64 182.9 84.88C183.32 85.12 183.78 85.25 184.29 85.25C184.8 85.25 185.26 85.13 185.69 84.88C186.12 84.63 186.45 84.28 186.7 83.82C186.95 83.36 187.07 82.81 187.07 82.2C187.07 81.59 186.95 81.04 186.7 80.58V80.57Z" fill="black"/>
<path d="M191.39 76.5C191.21 76.32 191.12 76.1 191.12 75.84C191.12 75.58 191.21 75.36 191.39 75.18C191.57 75 191.79 74.91 192.05 74.91C192.31 74.91 192.51 75 192.69 75.18C192.86 75.36 192.95 75.58 192.95 75.84C192.95 76.1 192.86 76.32 192.69 76.5C192.52 76.68 192.3 76.77 192.05 76.77C191.8 76.77 191.57 76.68 191.39 76.5ZM192.71 78.1V86.3H191.35V78.1H192.71Z" fill="black"/>
<path d="M202.05 78.86C202.67 79.46 202.98 80.33 202.98 81.47V86.3H201.63V81.66C201.63 80.84 201.43 80.22 201.02 79.78C200.61 79.34 200.05 79.13 199.34 79.13C198.63 79.13 198.05 79.35 197.63 79.8C197.21 80.25 196.99 80.9 196.99 81.76V86.29H195.63V78.09H196.99V79.26C197.26 78.84 197.63 78.52 198.09 78.29C198.55 78.06 199.06 77.95 199.62 77.95C200.62 77.95 201.43 78.25 202.04 78.86H202.05Z" fill="black"/>
<path d="M211.05 78.43C211.58 78.74 211.98 79.13 212.24 79.6V78.1H213.62V86.48C213.62 87.23 213.46 87.89 213.14 88.48C212.82 89.06 212.36 89.52 211.77 89.85C211.18 90.18 210.49 90.34 209.7 90.34C208.62 90.34 207.73 90.09 207.01 89.58C206.29 89.07 205.87 88.38 205.74 87.5H207.09C207.24 88 207.55 88.4 208.02 88.7C208.49 89 209.05 89.16 209.71 89.16C210.46 89.16 211.07 88.93 211.54 88.46C212.01 87.99 212.25 87.33 212.25 86.49V84.77C211.98 85.25 211.58 85.65 211.05 85.97C210.52 86.29 209.9 86.45 209.19 86.45C208.48 86.45 207.8 86.27 207.21 85.91C206.62 85.55 206.15 85.05 205.81 84.4C205.47 83.75 205.3 83.01 205.3 82.19C205.3 81.37 205.47 80.62 205.81 79.98C206.15 79.35 206.62 78.85 207.21 78.51C207.8 78.16 208.46 77.99 209.19 77.99C209.92 77.99 210.52 78.14 211.05 78.45V78.43ZM211.86 80.57C211.61 80.11 211.27 79.76 210.85 79.52C210.43 79.28 209.96 79.15 209.45 79.15C208.94 79.15 208.48 79.27 208.06 79.51C207.64 79.75 207.31 80.1 207.06 80.56C206.81 81.02 206.69 81.56 206.69 82.18C206.69 82.8 206.81 83.35 207.06 83.82C207.31 84.28 207.64 84.64 208.06 84.88C208.48 85.12 208.94 85.25 209.45 85.25C209.96 85.25 210.42 85.13 210.85 84.88C211.28 84.63 211.61 84.28 211.86 83.82C212.11 83.36 212.23 82.81 212.23 82.2C212.23 81.59 212.11 81.04 211.86 80.58V80.57Z" fill="black"/>
<path d="M227.19 81.09C226.6 81.66 225.69 81.95 224.47 81.95H222.46V86.3H221.1V75.87H224.47C225.65 75.87 226.54 76.15 227.16 76.72C227.78 77.29 228.08 78.02 228.08 78.92C228.08 79.82 227.78 80.51 227.19 81.08V81.09ZM226.16 80.33C226.52 80 226.7 79.53 226.7 78.92C226.7 77.63 225.96 76.99 224.49 76.99H222.48V80.82H224.49C225.25 80.82 225.81 80.66 226.17 80.33H226.16Z" fill="black"/>
<path d="M231.74 75.23V86.3H230.38V75.23H231.74Z" fill="black"/>
<path d="M234.65 79.96C234.99 79.33 235.46 78.83 236.05 78.49C236.64 78.14 237.3 77.97 238.03 77.97C238.76 77.97 239.37 78.12 239.9 78.43C240.43 78.74 240.82 79.13 241.08 79.6V78.1H242.46V86.3H241.08V84.77C240.81 85.25 240.41 85.65 239.88 85.96C239.35 86.27 238.73 86.43 238.02 86.43C237.31 86.43 236.63 86.25 236.04 85.89C235.45 85.53 234.99 85.03 234.65 84.38C234.31 83.73 234.14 82.99 234.14 82.17C234.14 81.35 234.31 80.6 234.65 79.96ZM240.71 80.57C240.46 80.11 240.12 79.76 239.7 79.52C239.28 79.28 238.81 79.15 238.3 79.15C237.79 79.15 237.33 79.27 236.91 79.51C236.49 79.75 236.16 80.1 235.91 80.56C235.66 81.02 235.54 81.56 235.54 82.18C235.54 82.8 235.66 83.35 235.91 83.82C236.16 84.28 236.49 84.64 236.91 84.88C237.33 85.12 237.79 85.25 238.3 85.25C238.81 85.25 239.27 85.13 239.7 84.88C240.13 84.63 240.46 84.28 240.71 83.82C240.96 83.36 241.08 82.81 241.08 82.2C241.08 81.59 240.96 81.04 240.71 80.58V80.57Z" fill="black"/>
<path d="M251.79 78.86C252.41 79.46 252.72 80.33 252.72 81.47V86.3H251.37V81.66C251.37 80.84 251.17 80.22 250.76 79.78C250.35 79.34 249.79 79.13 249.08 79.13C248.37 79.13 247.79 79.35 247.37 79.8C246.95 80.25 246.73 80.9 246.73 81.76V86.29H245.37V78.09H246.73V79.26C247 78.84 247.37 78.52 247.83 78.29C248.29 78.06 248.8 77.95 249.36 77.95C250.36 77.95 251.17 78.25 251.78 78.86H251.79Z" fill="black"/>
<path d="M261.96 78.86C262.58 79.46 262.89 80.33 262.89 81.47V86.3H261.54V81.66C261.54 80.84 261.34 80.22 260.93 79.78C260.52 79.34 259.96 79.13 259.25 79.13C258.54 79.13 257.96 79.35 257.54 79.8C257.12 80.25 256.9 80.9 256.9 81.76V86.29H255.54V78.09H256.9V79.26C257.17 78.84 257.54 78.52 258 78.29C258.46 78.06 258.97 77.95 259.53 77.95C260.53 77.95 261.34 78.25 261.95 78.86H261.96Z" fill="black"/>
<path d="M273.16 82.71H266.61C266.66 83.52 266.94 84.15 267.44 84.6C267.94 85.05 268.55 85.28 269.27 85.28C269.86 85.28 270.35 85.14 270.74 84.87C271.13 84.6 271.41 84.23 271.57 83.77H273.04C272.82 84.56 272.38 85.2 271.72 85.69C271.06 86.18 270.24 86.43 269.27 86.43C268.49 86.43 267.8 86.26 267.18 85.91C266.57 85.56 266.09 85.06 265.74 84.42C265.39 83.78 265.22 83.03 265.22 82.18C265.22 81.33 265.39 80.59 265.73 79.95C266.07 79.31 266.55 78.82 267.16 78.48C267.77 78.14 268.48 77.96 269.28 77.96C270.08 77.96 270.75 78.13 271.34 78.47C271.94 78.81 272.4 79.28 272.72 79.87C273.04 80.46 273.21 81.13 273.21 81.88C273.21 82.14 273.2 82.41 273.17 82.7L273.16 82.71ZM271.45 80.26C271.22 79.89 270.91 79.6 270.52 79.41C270.13 79.22 269.69 79.12 269.21 79.12C268.52 79.12 267.94 79.34 267.45 79.78C266.97 80.22 266.69 80.83 266.62 81.61H271.8C271.8 81.09 271.68 80.64 271.46 80.27L271.45 80.26Z" fill="black"/>
<path d="M277.98 78.34C278.42 78.08 278.97 77.95 279.6 77.95V79.36H279.24C277.71 79.36 276.95 80.19 276.95 81.84V86.3H275.59V78.1H276.95V79.43C277.19 78.96 277.53 78.6 277.97 78.34H277.98Z" fill="black"/>
<path d="M282.99 86.11C282.49 85.9 282.1 85.6 281.81 85.21C281.52 84.83 281.36 84.38 281.33 83.89H282.74C282.78 84.3 282.97 84.63 283.32 84.89C283.67 85.15 284.12 85.28 284.67 85.28C285.19 85.28 285.6 85.17 285.9 84.94C286.2 84.71 286.35 84.42 286.35 84.07C286.35 83.72 286.19 83.44 285.87 83.27C285.55 83.1 285.06 82.92 284.39 82.75C283.78 82.59 283.29 82.43 282.9 82.26C282.52 82.1 282.19 81.85 281.91 81.53C281.64 81.21 281.5 80.78 281.5 80.25C281.5 79.83 281.62 79.45 281.87 79.1C282.12 78.75 282.47 78.47 282.93 78.27C283.39 78.07 283.91 77.96 284.5 77.96C285.41 77.96 286.14 78.19 286.7 78.65C287.26 79.11 287.56 79.74 287.6 80.54H286.24C286.21 80.11 286.04 79.77 285.72 79.51C285.41 79.25 284.98 79.12 284.46 79.12C283.97 79.12 283.58 79.22 283.29 79.43C283 79.64 282.86 79.91 282.86 80.25C282.86 80.52 282.95 80.74 283.12 80.92C283.29 81.09 283.51 81.23 283.78 81.34C284.04 81.45 284.41 81.56 284.88 81.69C285.47 81.85 285.95 82.01 286.32 82.16C286.69 82.31 287.01 82.55 287.27 82.86C287.53 83.17 287.67 83.57 287.68 84.07C287.68 84.52 287.56 84.92 287.31 85.28C287.06 85.64 286.71 85.92 286.26 86.13C285.81 86.33 285.28 86.44 284.7 86.44C284.07 86.44 283.51 86.33 283.01 86.12L282.99 86.11Z" fill="black"/>
<path d="M302.78 86.3L301.42 84.92C300.91 85.45 300.37 85.84 299.79 86.09C299.21 86.34 298.56 86.47 297.83 86.47C297.1 86.47 296.48 86.34 295.92 86.08C295.37 85.82 294.94 85.45 294.63 84.97C294.32 84.49 294.17 83.93 294.17 83.29C294.17 82.56 294.38 81.92 294.79 81.37C295.2 80.82 295.81 80.38 296.62 80.06C296.3 79.68 296.07 79.33 295.93 79.01C295.79 78.69 295.72 78.34 295.72 77.96C295.72 77.52 295.83 77.12 296.06 76.77C296.28 76.42 296.61 76.14 297.03 75.94C297.45 75.74 297.93 75.64 298.48 75.64C299.03 75.64 299.49 75.74 299.89 75.95C300.29 76.16 300.59 76.45 300.79 76.83C300.99 77.2 301.08 77.62 301.06 78.08H299.7C299.7 77.67 299.6 77.35 299.36 77.11C299.12 76.88 298.81 76.76 298.43 76.76C298.03 76.76 297.71 76.87 297.46 77.1C297.22 77.32 297.09 77.61 297.09 77.96C297.09 78.26 297.17 78.55 297.34 78.83C297.5 79.11 297.78 79.45 298.17 79.86L301.28 82.99L301.55 82.57L302.57 80.86H304.04L302.81 82.99C302.64 83.29 302.44 83.6 302.21 83.93L304.56 86.28H302.78V86.3ZM299.29 85C299.72 84.79 300.14 84.47 300.52 84.03L297.45 80.95C296.17 81.44 295.53 82.21 295.53 83.27C295.53 83.86 295.74 84.35 296.17 84.74C296.59 85.13 297.14 85.32 297.82 85.32C298.36 85.32 298.84 85.22 299.28 85.01L299.29 85Z" fill="black"/>
<path d="M311.21 78.33C311.67 77.52 312.29 76.88 313.09 76.42C313.89 75.96 314.76 75.73 315.73 75.73C316.87 75.73 317.86 76 318.71 76.55C319.56 77.1 320.18 77.88 320.57 78.88H318.94C318.65 78.25 318.23 77.77 317.69 77.43C317.15 77.09 316.49 76.92 315.74 76.92C314.99 76.92 314.36 77.09 313.78 77.43C313.2 77.77 312.75 78.25 312.42 78.87C312.09 79.49 311.93 80.22 311.93 81.06C311.93 81.9 312.09 82.61 312.42 83.24C312.75 83.86 313.2 84.35 313.78 84.68C314.36 85.01 315.01 85.19 315.74 85.19C316.47 85.19 317.15 85.02 317.69 84.69C318.23 84.36 318.65 83.87 318.94 83.25H320.57C320.18 84.25 319.56 85.02 318.71 85.56C317.86 86.1 316.87 86.38 315.73 86.38C314.76 86.38 313.88 86.15 313.09 85.7C312.3 85.25 311.67 84.61 311.21 83.81C310.75 83 310.52 82.09 310.52 81.07C310.52 80.05 310.75 79.14 311.21 78.32V78.33Z" fill="black"/>
<path d="M323.18 79.96C323.52 79.33 323.99 78.83 324.58 78.49C325.17 78.14 325.83 77.97 326.56 77.97C327.29 77.97 327.9 78.12 328.43 78.43C328.96 78.74 329.35 79.13 329.61 79.6V78.1H330.99V86.3H329.61V84.77C329.34 85.25 328.94 85.65 328.41 85.96C327.88 86.27 327.26 86.43 326.55 86.43C325.84 86.43 325.16 86.25 324.57 85.89C323.98 85.53 323.52 85.03 323.18 84.38C322.84 83.73 322.67 82.99 322.67 82.17C322.67 81.35 322.84 80.6 323.18 79.96ZM329.24 80.57C328.99 80.11 328.65 79.76 328.23 79.52C327.81 79.28 327.34 79.15 326.83 79.15C326.32 79.15 325.86 79.27 325.44 79.51C325.02 79.75 324.69 80.1 324.44 80.56C324.19 81.02 324.07 81.56 324.07 82.18C324.07 82.8 324.19 83.35 324.44 83.82C324.69 84.28 325.02 84.64 325.44 84.88C325.86 85.12 326.32 85.25 326.83 85.25C327.34 85.25 327.8 85.13 328.23 84.88C328.66 84.63 328.99 84.28 329.24 83.82C329.49 83.36 329.61 82.81 329.61 82.2C329.61 81.59 329.49 81.04 329.24 80.58V80.57Z" fill="black"/>
<path d="M335.55 79.22V84.05C335.55 84.45 335.63 84.73 335.8 84.9C335.97 85.06 336.26 85.15 336.68 85.15H337.68V86.3H336.45C335.69 86.3 335.12 86.13 334.74 85.78C334.36 85.43 334.17 84.86 334.17 84.06V79.23H333.11V78.11H334.17V76.05H335.53V78.11H337.67V79.23H335.53L335.55 79.22Z" fill="black"/>
<path d="M347.37 82.71H340.82C340.87 83.52 341.15 84.15 341.65 84.6C342.15 85.05 342.76 85.28 343.48 85.28C344.07 85.28 344.56 85.14 344.95 84.87C345.34 84.6 345.62 84.23 345.78 83.77H347.25C347.03 84.56 346.59 85.2 345.93 85.69C345.27 86.18 344.45 86.43 343.48 86.43C342.7 86.43 342.01 86.26 341.39 85.91C340.78 85.56 340.3 85.06 339.95 84.42C339.6 83.78 339.43 83.03 339.43 82.18C339.43 81.33 339.6 80.59 339.94 79.95C340.28 79.31 340.76 78.82 341.37 78.48C341.98 78.14 342.69 77.96 343.49 77.96C344.29 77.96 344.96 78.13 345.55 78.47C346.15 78.81 346.61 79.28 346.93 79.87C347.25 80.46 347.42 81.13 347.42 81.88C347.42 82.14 347.41 82.41 347.38 82.7L347.37 82.71ZM345.67 80.26C345.44 79.89 345.13 79.6 344.74 79.41C344.35 79.22 343.91 79.12 343.43 79.12C342.74 79.12 342.16 79.34 341.67 79.78C341.19 80.22 340.91 80.83 340.84 81.61H346.02C346.02 81.09 345.9 80.64 345.68 80.27L345.67 80.26Z" fill="black"/>
<path d="M352.2 78.34C352.64 78.08 353.19 77.95 353.82 77.95V79.36H353.46C351.93 79.36 351.17 80.19 351.17 81.84V86.3H349.81V78.1H351.17V79.43C351.41 78.96 351.75 78.6 352.19 78.34H352.2Z" fill="black"/>
<path d="M363.43 82.71H356.88C356.93 83.52 357.21 84.15 357.71 84.6C358.21 85.05 358.82 85.28 359.54 85.28C360.13 85.28 360.62 85.14 361.01 84.87C361.4 84.6 361.68 84.23 361.84 83.77H363.31C363.09 84.56 362.65 85.2 361.99 85.69C361.33 86.18 360.51 86.43 359.54 86.43C358.76 86.43 358.07 86.26 357.45 85.91C356.84 85.56 356.36 85.06 356.01 84.42C355.66 83.78 355.49 83.03 355.49 82.18C355.49 81.33 355.66 80.59 356 79.95C356.34 79.31 356.82 78.82 357.43 78.48C358.04 78.14 358.75 77.96 359.55 77.96C360.35 77.96 361.02 78.13 361.61 78.47C362.21 78.81 362.67 79.28 362.99 79.87C363.31 80.46 363.48 81.13 363.48 81.88C363.48 82.14 363.47 82.41 363.44 82.7L363.43 82.71ZM361.72 80.26C361.49 79.89 361.18 79.6 360.79 79.41C360.4 79.22 359.96 79.12 359.48 79.12C358.79 79.12 358.21 79.34 357.72 79.78C357.24 80.22 356.96 80.83 356.89 81.61H362.07C362.07 81.09 361.95 80.64 361.73 80.27L361.72 80.26Z" fill="black"/>
<path d="M368.25 78.34C368.69 78.08 369.24 77.95 369.87 77.95V79.36H369.51C367.98 79.36 367.22 80.19 367.22 81.84V86.3H365.86V78.1H367.22V79.43C367.46 78.96 367.8 78.6 368.24 78.34H368.25Z" fill="black"/>
<path d="M373.26 86.11C372.76 85.9 372.37 85.6 372.08 85.21C371.79 84.83 371.63 84.38 371.6 83.89H373.01C373.05 84.3 373.24 84.63 373.59 84.89C373.94 85.15 374.39 85.28 374.94 85.28C375.46 85.28 375.87 85.17 376.17 84.94C376.47 84.71 376.62 84.42 376.62 84.07C376.62 83.72 376.46 83.44 376.14 83.27C375.82 83.1 375.33 82.92 374.66 82.75C374.05 82.59 373.56 82.43 373.17 82.26C372.79 82.1 372.46 81.85 372.18 81.53C371.91 81.21 371.77 80.78 371.77 80.25C371.77 79.83 371.89 79.45 372.14 79.1C372.39 78.75 372.74 78.47 373.2 78.27C373.66 78.07 374.18 77.96 374.77 77.96C375.68 77.96 376.41 78.19 376.97 78.65C377.53 79.11 377.83 79.74 377.87 80.54H376.51C376.48 80.11 376.31 79.77 375.99 79.51C375.68 79.25 375.25 79.12 374.73 79.12C374.24 79.12 373.85 79.22 373.56 79.43C373.27 79.64 373.13 79.91 373.13 80.25C373.13 80.52 373.22 80.74 373.39 80.92C373.56 81.09 373.78 81.23 374.05 81.34C374.31 81.45 374.68 81.56 375.15 81.69C375.74 81.85 376.22 82.01 376.59 82.16C376.96 82.31 377.28 82.55 377.54 82.86C377.8 83.17 377.94 83.57 377.95 84.07C377.95 84.52 377.83 84.92 377.58 85.28C377.33 85.64 376.98 85.92 376.53 86.13C376.08 86.33 375.55 86.44 374.97 86.44C374.34 86.44 373.78 86.33 373.28 86.12L373.26 86.11Z" fill="black"/>
</g>
<defs>
<linearGradient id="paint0_linear_563_254" x1="17.58" y1="98.94" x2="111.69" y2="19.47" gradientUnits="userSpaceOnUse">
<stop stop-color="#DC972D"/>
<stop offset="0.54" stop-color="#EED78C"/>
<stop offset="1" stop-color="#DC962E"/>
</linearGradient>
<linearGradient id="paint1_linear_563_254" x1="139.98" y1="46.57" x2="382" y2="46.57" gradientUnits="userSpaceOnUse">
<stop stop-color="#E1A849"/>
<stop offset="0.48" stop-color="#F3E29B"/>
<stop offset="1" stop-color="#DFA03A"/>
</linearGradient>
<clipPath id="clip0_563_254">
<rect width="382" height="115.65" fill="white"/>
</clipPath>
</defs>
</svg>
